<svg version="1" xmlns="http://www.w3.org/2000/svg" width="346.667" height="346.667" viewBox="0 0 260.000000 260.000000"><path d="M8.4 11.8c-1.7.2-2 .8-1.6 3.2.3 1.9 1 3 2.1 3 3 0 7.8 3.8 9 7.1.8 2.3 1 19.8.9 61.2l-.3 57.9-3.3 2.9c-1.8 1.6-4.1 2.9-5.2 2.9-2.2 0-3.9 2.5-3.3 4.9.4 1.4 3 1.6 22.6 1.5 22.1 0 22.1-.1 22-2.2-.2-3.8-.3-4.2-1-4-2 .6-7.3-2.3-9-4.8-1.6-2.5-1.8-5.6-2.1-27.1-.3-23-.3-24.3 1.5-24.4 3.1-.2 14.7.1 17.5.4 1.4.1 3.9 1.4 5.5 2.7 3 2.5 9.3 11.2 9.3 12.7 0 .5 1.1 2.5 2.5 4.6 1.4 2 2.3 3.7 1.9 3.7-.3 0-.2.6.4 1.2.5.7 2.9 4.9 5.2 9.3 6.3 11.7 7.8 14.3 12.2 21.5l4 6.5 13.9-.1c7.6 0 14.2-.4 14.6-.8 1.9-1.9.9-3.9-3-5.5-7.3-3.2-11.1-7.8-20.2-24.7-6.8-12.6-12.6-22.2-14-23.4-.8-.7-1.5-1.9-1.5-2.6 0-.8-.3-1.4-.7-1.4-.5 0-2.3-1.4-4.1-3-1.9-1.6-4.2-3.2-5.3-3.5-1-.4-1.9-.9-1.9-1.3s3.4-2.4 7.5-4.5c6.4-3.3 12.2-8.1 17.3-14.2 1.7-2 4.2-7.9 5.6-13.4 1.4-5.4.3-20.2-2-25.6-2.7-6.4-11-13.6-19-16.5-3.8-1.3-7.8-2.5-8.9-2.6-1.1-.1-5.4-.5-9.4-.9-4.1-.3-7.8-.8-8.1-1-.3-.2-1.2 0-1.9.4-.7.5-2.7.5-4.5.2-1.7-.4-4.2-.4-5.6-.1-1.4.4-3.7.3-5.2-.1-1.7-.5-2.8-.4-2.8.2 0 .6-.5.7-1.1.3-1.1-.7-26.5-1.2-30.5-.6zm57.7 10.6c4.5 1 9.7 3.5 12.1 5.8 3 2.8 7.2 8.8 6.2 8.8-.3 0-.1.6.5 1.4 2.1 2.5 2.5 17.4.8 24.3-2.1 7.9-5 12.3-10.7 16.1-4.8 3.2-12.3 5.7-14.6 4.8-.8-.3-1.4-.2-1.4.2 0 .6-13.5.8-18.7.3-1-.1-1.3-7-1.3-31 0-23.8.3-31 1.3-31.4 1.6-.6 22.5 0 25.8.7z"/><path d="M128.9 106c-1.3.3-2.4 1.1-2.3 1.7.1.7.2 1.7.3 2.2 0 .5 1.6 1.5 3.4 2.2 4.1 1.7 6.3 3.8 7.6 7.2.8 1.9 1 21.5.8 60.2-.2 56.4-.2 57.4-2.3 60.2-1.1 1.5-3.5 3.3-5.2 3.8-3.8 1.3-4.2 1.6-4.7 4.4-.3 1.7.1 2.1 2.3 2.2 3.2.1 37.8.1 40.8 0 1.5-.1 2-.7 1.9-2.3-.2-2.2-.8-2.7-5.8-4.7-1.5-.6-3.5-2.4-4.6-4.1-1.6-2.7-1.8-5.7-2-27-.2-19.2 0-24 1.1-24.1 7.4-.6 18.2.2 21.3 1.7 4.2 2 9 8.6 16 22.4 2.6 5.2 5.1 9.9 5.5 10.5.4.5 2.6 4.5 4.9 8.9 5.7 10.6 6.2 11.5 9.1 15.6l2.5 3.5h14.3c7.8 0 14.2-.2 14.3-.5 0-.3.2-1.3.4-2.3.3-1.4-.8-2.3-4-3.7-6.1-2.6-9.6-6.5-16.1-17.7-3.1-5.4-6.1-10.4-6.6-11.1-.6-.6-.8-1.2-.4-1.2.3 0-.9-2.4-2.7-5.3-1.8-2.8-3.8-6.4-4.6-7.8-.7-1.4-2.6-4.1-4.2-6-1.6-1.9-2.9-3.6-2.9-3.9 0-.3-2.2-1.9-5-3.5-2.7-1.7-5-3.3-5-3.6 0-.3 3.3-2.2 7.3-4.2 6.9-3.4 16.7-11.3 16.7-13.5 0-.5.7-1.5 1.5-2.2 2.4-2 5.6-13.9 5.6-21.1.1-10.3-2.5-18-7.9-24-2.6-3-12.2-9.4-12.2-8.3 0 .4-.6.2-1.2-.4-1.1-.8-4.6-1.9-9.4-2.8-.6-.1-3.7-.5-6.9-.9-3.3-.3-6.3-.8-6.6-1.1-.4-.2-1 0-1.4.5-.3.6-1.2.8-1.9.5-1.8-.7-48.5-1.1-51.7-.4zm59 10.9c13.2 3.7 19.5 13.9 19 30.4-.6 17-9 27.9-23.4 30.3-4.6.8-21.4 1.2-23.2.6-1-.3-1.3-7.5-1.3-31.2 0-23.8.3-30.9 1.3-31.3 2.6-.8 23.4.1 27.6 1.2z"/></svg>